# xmcd CD database file
#
# Track frame offsets:
#	150
#	20497
#	33922
#	49997
#	70330
#
# Disc length: 1115 seconds
#
# Revision: 1
# Processed by: cddbd v1.5.2PL0 Copyright (c) Steve Scherf et al.
# Submitted via: CDex 1.70beta2
#
DISCID=3e045905
DTITLE=いきものがかり - うるわしきひと - 青春のとびら
DYEAR=2007
DGENRE=JPop
TTITLE0=うるわしきひと
TTITLE1=青春のとびら
TTITLE2=春一番
TTITLE3=うるわしきひと -instrumental-
TTITLE4=青春のとびら -instrumental-
EXTD=YEAR: 2007
EXTT0=
EXTT1=
EXTT2=
EXTT3=
EXTT4=
PLAYORDER=
